<svg xmlns="http://www.w3.org/2000/svg" viewBox="0 0 128 128"><defs><style>.cls-1{fill:#47566a;}</style></defs><title>Counseling</title><g id="Counseling"><path class="cls-1" d="M52.23,118.45l-1.46-.36V95.8a9.09,9.09,0,0,0-8.3-9.08l-14-1.28v-6.8c3.4-.75,4.17-2.17,12.88-10.9a5.2,5.2,0,0,0,.46-7,5,5,0,0,0-7.47-.33L28.42,66.3c0-3.19.23-5.15-1-7.74a11.13,11.13,0,0,0,8.68-5.51l2-3.52A11.16,11.16,0,1,0,18.77,38.37c-2.18,3.77-5.62,8.31-2.07,14.6a10.18,10.18,0,0,0-8.53,9.09A5,5,0,0,0,0,66v61a1,1,0,0,0,1,1H9.13a1,1,0,0,0,1-1V107.68H30.48V127a1,1,0,0,0,1,1H57.9a1,1,0,0,0,1-1A8.82,8.82,0,0,0,52.23,118.45ZM18.47,42.89c2.11-3.66,3.3-6.64,7.59-7.79A9.18,9.18,0,0,1,36.37,48.53l-2,3.52a9.16,9.16,0,1,1-15.87-9.16Zm-.43,12a11.08,11.08,0,0,0,7,3.69A8.18,8.18,0,0,1,26.42,63c0,5.63.06,5.26,0,5.36l-5-5.05a1,1,0,0,0-1.42,1.42l5.76,5.75a1,1,0,0,0,1.41,0l8.62-8.62a3.13,3.13,0,0,1,4.52.21,3.18,3.18,0,0,1-.35,4.27C31,75.18,30.5,76.43,27.24,76.81a7,7,0,0,1-5.9-2c-8.49-8.5-10.42-9.67-11.07-13.33A8.12,8.12,0,0,1,18,54.85Zm-7.91,39.9a11.29,11.29,0,0,0,2.8,2.8h-2.8Zm21.35,10.93H9.13a1,1,0,0,0-1,1V126H2V66a3.07,3.07,0,0,1,6.13,0V98.55a1,1,0,0,0,1,1H38.61V126H32.48V106.68A1,1,0,0,0,31.48,105.68ZM40.61,126V98.55a1,1,0,0,0-1-1H19.29a9.17,9.17,0,0,1-9.16-9.16V66.19c.74,1,.27.5,9.79,10a9.1,9.1,0,0,0,6.46,2.67c.1,0,0-.42,0,7.47a1,1,0,0,0,.91,1l15,1.36a7.1,7.1,0,0,1,6.48,7.09v23.07c0,1,.84,1,3,1.52A6.83,6.83,0,0,1,56.83,126Z"/><path class="cls-1" d="M119.87,62a1,1,0,0,0-.11-.51,10.13,10.13,0,0,0-6.06-7.87,11.17,11.17,0,0,0,6.17-10V39.61a11.16,11.16,0,0,0-22.32,0v4.07a11.16,11.16,0,0,0,7.25,10.44A10.15,10.15,0,0,0,99.58,63V77.23H96.52A5,5,0,0,0,93.13,86l-7.6.69a9.09,9.09,0,0,0-8.3,9.08v22.29l-1.46.36A8.82,8.82,0,0,0,69.1,127a1,1,0,0,0,1,1H96.52a1,1,0,0,0,1-1V107.68h20.35V127a1,1,0,0,0,1,1H127a1,1,0,0,0,1-1V66A5,5,0,0,0,119.87,62ZM99.55,43.68V39.61a9.16,9.16,0,0,1,18.32,0v4.07a9.16,9.16,0,0,1-18.32,0Zm-3,35.55h14.22a1,1,0,0,0,1-1V62a1,1,0,0,0-2,0V77.23h-8.16V63a8.16,8.16,0,0,1,13.91-5.75c2.75,2.72,2.38,5.63,2.38,8.8v12.2a7.13,7.13,0,0,1-7.13,7.12H96.52a3.06,3.06,0,1,1,0-6.12ZM87.39,98.55V126H71.17a6.85,6.85,0,0,1,5.08-5.61c2.27-.56,3-.57,3-1.52V95.8a7.1,7.1,0,0,1,6.48-7.09c18.16-1.65,12.3-1.36,25-1.36a9.08,9.08,0,0,0,7.13-3.44v4.48a9.17,9.17,0,0,1-9.16,9.16H88.39A1,1,0,0,0,87.39,98.55Zm30.48-3.8v2.8h-2.8A11.29,11.29,0,0,0,117.87,94.75ZM126,126h-6.13V106.68a1,1,0,0,0-1-1H96.52a1,1,0,0,0-1,1V126H89.39V99.55h29.48a1,1,0,0,0,1-1V66A3.07,3.07,0,0,1,126,66Z"/><path class="cls-1" d="M63.47,17.26a1.5,1.5,0,0,0-3,0A1.5,1.5,0,0,0,63.47,17.26Z"/><path class="cls-1" d="M53.84,15.76a1.5,1.5,0,0,0,0,3A1.5,1.5,0,0,0,53.84,15.76Z"/><path class="cls-1" d="M70.1,18.76a1.5,1.5,0,0,0,0-3A1.5,1.5,0,0,0,70.1,18.76Z"/><path class="cls-1" d="M74.16,42.65c17.34,0,16.82.26,17.18-.62s0-.83-4.28-5.16A17.27,17.27,0,0,0,76.71,8.34c-9.11-15-32-8.37-32,8.92a17.09,17.09,0,0,0,4.37,11.47L45,32.81a1,1,0,0,0,.71,1.71H59.54A17.25,17.25,0,0,0,74.16,42.65Zm-23-13.19a1,1,0,0,0,0-1.41C41.6,18.47,48.45,2,62,2a15.26,15.26,0,1,1,0,30.52H48.12ZM62,34.52A17.28,17.28,0,0,0,77.89,10.61,15.26,15.26,0,0,1,85,36.18a1,1,0,0,0,0,1.42l3.05,3H74.16C66.36,40.65,61.76,34.52,62,34.52Z"/></g></svg>