<svg xmlns="http://www.w3.org/2000/svg" viewBox="0 0 128 128"><defs><style>.cls-1{fill:#47566a;}</style></defs><title>Drugs Addict</title><g id="Drugs_Addict" data-name="Drugs Addict"><path class="cls-1" d="M41.65,113.81H34.52v-60a1,1,0,0,0-1-1H30.45V45.71a1,1,0,0,0-1-1H28.16l-2.22-7.42c-.27-.9-.93-.71-3.62-.71V1a1,1,0,0,0-2,0V36.58c-2.67,0-3.34-.19-3.61.71l-2.23,7.42H13.19a1,1,0,0,0-1,1v7.13H9.13a1,1,0,0,0-1,1v60H1a1,1,0,0,0,0,2H14.23V126H11.16a1,1,0,0,0,0,2H31.48a1,1,0,0,0,0-2H28.42V115.81H41.65A1,1,0,0,0,41.65,113.81ZM18.41,38.58h5.83l1.84,6.13H16.57Zm-4.22,8.13H28.45v6.13H14.19ZM26.42,126H16.23V115.81H26.42ZM10.13,113.81v-59H32.52V61H29.45a1,1,0,0,0,0,2h3.07V69.1h-5.1a1,1,0,0,0,0,2h5.1v6.13H29.45a1,1,0,0,0,0,2h3.07v6.12h-5.1a1,1,0,0,0,0,2h5.1v6.13H29.45a1,1,0,0,0,0,2h3.07v6.13h-5.1a1,1,0,0,0,0,2h5.1v10.2Z"/><path class="cls-1" d="M109.24,94.46a1,1,0,0,0-.55.56,11.11,11.11,0,1,0,.55-.56Zm7.6,17.31a9.16,9.16,0,0,1-7.14-14.88c11.37,11.37,10.61,10.79,11.2,10.79a1,1,0,0,0,.71-1.71l-10.5-10.5a9.16,9.16,0,1,1,5.73,16.3Z"/><path class="cls-1" d="M68.3,102.85a11.16,11.16,0,0,0,7.44,19,.9.9,0,0,0,.9,0,11.16,11.16,0,1,0-8.34-19Zm8.89,17V105a1,1,0,0,0-2,0v14.86a9.16,9.16,0,1,1,2,0Z"/><path class="cls-1" d="M96.75,31.25a11.17,11.17,0,1,0,7.9-19.06A11.19,11.19,0,0,0,96.75,31.25Zm7.9-17.06A9.16,9.16,0,1,1,98.92,30.5L109.42,20A1,1,0,0,0,108,18.58L97.5,29.08A9.17,9.17,0,0,1,104.65,14.19Z"/><path class="cls-1" d="M51.81,56.9A9.14,9.14,0,0,0,42.68,66V82.29a9.13,9.13,0,1,0,18.26,0V66A9.15,9.15,0,0,0,51.81,56.9Zm0,32.52a7.14,7.14,0,0,1-7.13-7.13V75.16H58.94v7.13A7.14,7.14,0,0,1,51.81,89.42Zm7.13-16.26H44.68V66a7.13,7.13,0,1,1,14.26,0Z"/><path class="cls-1" d="M108.72,51.8a9.12,9.12,0,0,0-12.91,0L84.31,63.29A9.13,9.13,0,0,0,97.22,76.2l11.5-11.49A9.14,9.14,0,0,0,108.72,51.8Zm-12.91,23A7.13,7.13,0,0,1,85.73,64.71l5-5,10.08,10.08Zm6.45-6.46L92.18,58.25l5-5a7.13,7.13,0,0,1,10.09,10.08Z"/><path class="cls-1" d="M72.78,31.13a9.08,9.08,0,0,0-2.67-6.45l-11.5-11.5A9.13,9.13,0,0,0,45.7,26.09l11.5,11.5A9.14,9.14,0,0,0,72.78,31.13ZM45,19.64a7.14,7.14,0,0,1,12.17-5l5,5L52.16,29.72C47,24.59,45,23.36,45,19.64ZM63.65,38.26a7.11,7.11,0,0,1-5-2.08l-5-5.05L63.65,21.05l5,5A7.13,7.13,0,0,1,63.65,38.26Z"/></g></svg>