<svg xmlns="http://www.w3.org/2000/svg" viewBox="0 0 128 128"><defs><style>.cls-1{fill:#47566a;}</style></defs><title>Stress</title><g id="Stress"><path class="cls-1" d="M127.49,57C107.54,46,109,46.59,108.37,46.8s-.28-.2-4.4,10.1H90.42a1,1,0,0,0-.49,1.88C109.88,69.86,108.43,69.22,109,69s.29.2,4.41-10.11H127A1,1,0,0,0,127.49,57Zm-14.72-.13c-.94,0-.77.24-4.57,9.74L94.28,58.9h10.37c.94,0,.77-.23,4.57-9.73l13.92,7.73Z"/><path class="cls-1" d="M37.58,58.9A1,1,0,0,0,38.07,57C18.12,46,19.57,46.59,19,46.8s-.29-.2-4.41,10.1H1a1,1,0,0,0-.49,1.88C20.46,69.86,19,69.22,19.63,69s.28.2,4.4-10.11ZM22.43,57.53l-3.65,9.11L4.86,58.9c10.86,0,10.94.25,11.29-.63l3.65-9.1L33.72,56.9C22.86,56.9,22.78,56.65,22.43,57.53Z"/><path class="cls-1" d="M24.24,37.81a1,1,0,0,0,1.35.65L35,34.41,44.61,44a1,1,0,0,0,1.67-1L40.53,22.89a1,1,0,0,0-1.35-.64l-9.44,4-9.58-9.58a1,1,0,0,0-1.67,1Zm4.56-9.62c.67.67.72.37,10.12-3.66L43.3,39.85c-7.7-7.69-7.56-7.92-8.43-7.54l-9,3.86L21.47,20.86Z"/><path class="cls-1" d="M82.68,44.29c.24,0-.9.29,20.39-5.79a1,1,0,0,0,.65-1.36l-4-9.43,9.58-9.58a1,1,0,0,0-1-1.67c-22,6.27-20.47,5.69-20.74,6.28s-.35.06,4,10.26L82,42.58A1,1,0,0,0,82.68,44.29ZM93.45,33.93c.67-.67.37-.71-3.65-10.11l15.31-4.38-7.33,7.33c-.67.67-.38.72,3.65,10.12L86.12,41.26Z"/><path class="cls-1" d="M63,24V37.58a1,1,0,0,0,1,1c.84,0,0,1,11-18.8a1,1,0,0,0-.51-1.42L65,14.55V1A1,1,0,0,0,63.13.51C52,20.48,52.68,19,52.9,19.63S52.69,19.91,63,24ZM63,4.86c0,10.85-.25,10.94.63,11.29l9.11,3.65L65,33.72c0-10.86.25-10.94-.63-11.29l-9.11-3.65Z"/><path class="cls-1" d="M94,76.56C82.27,56,82.47,56.31,79.57,55.56a6.56,6.56,0,0,0-3.65,0,17.22,17.22,0,0,0-23.83,0,6.66,6.66,0,0,0-3.65,0c-2.89.76-2.62.3-14.5,21C20.72,99.7,20.32,99.32,20.32,103.14a10.57,10.57,0,0,0,10.55,10.57c1.39,0,1.43-.08,9.78-1.75v15a1,1,0,0,0,2,0c0-17.92.06-16.37-.14-16.73a1,1,0,0,0-1-.51c-.31,0-.24,0-9,1.78a8.57,8.57,0,0,1-9.09-12.69c23.08-40,22.88-40.69,25.28-41.31a4.76,4.76,0,0,1,6,3.34c.72,2.71.36,2.07-21.06,39.2a1,1,0,0,0,1.73,1c.64-1.11,1.27-2.19,1.87-3.24,28.05-6.6,30.72-5.32,53.34,0,.6,1,1.23,2.12,1.87,3.24a1,1,0,0,0,1.73-1C72.88,63,72.52,63.48,73.19,61a4.73,4.73,0,0,1,6.06-3.42c2.41.62,1.89.76,25.28,41.31a8.57,8.57,0,0,1-9.09,12.69c-8.79-1.76-8.68-1.75-9-1.78l-.1,0a1.19,1.19,0,0,0-.63.24c-.56.47-.37-.32-.37,17a1,1,0,0,0,2,0V112c7.51,1.5,8.28,1.75,9.78,1.75a10.57,10.57,0,0,0,10.55-10.57C107.68,99.19,107.09,99.37,94,76.56ZM38.71,95.46c3.48-6,6.32-10.88,8.62-14.82a17.12,17.12,0,0,0,9.37,11.2C50.88,92.44,47.73,93.34,38.71,95.46Zm50.58,0c-9-2.13-12.2-3-18-3.62a17.1,17.1,0,0,0,9.37-11.23C83.42,85.35,86,89.7,89.29,95.46Zm-18-35.13c-.72,2.73-.79,2.79,7.86,17.66a15.25,15.25,0,0,1-30.28,0c8.62-14.77,8.58-14.92,7.85-17.68A6.71,6.71,0,0,0,54,56.52a15.22,15.22,0,0,1,19.94,0A6.76,6.76,0,0,0,71.28,60.33Z"/><path class="cls-1" d="M59,83.62A1,1,0,0,0,60.4,85a5.09,5.09,0,0,1,7.2,0A1,1,0,0,0,69,83.62,7.1,7.1,0,0,0,59,83.62Z"/></g></svg>