<svg xmlns="http://www.w3.org/2000/svg" viewBox="0 0 128 128"><defs><style>.cls-1{fill:#47566a;}</style></defs><title>Depression</title><g id="Depression"><path class="cls-1" d="M112.59,68.12,105.32,58A4.41,4.41,0,0,1,105,53.4c.9-1.81.68-2.93.68-8.71C105.65,21.62,87.79,0,59.12,0A45,45,0,0,0,14.23,44.69c0,9,.85,17,4.9,26.73A61.67,61.67,0,0,1,24,98.92c-.65,12.08-1.4,27.87-1.41,28a1,1,0,0,0,2,.1c0-.16.76-16,1.41-28A63.58,63.58,0,0,0,21.1,71c-4-9.52-4.9-17.15-4.87-26.27A43,43,0,0,1,59.12,2c27.25,0,44.53,20.44,44.53,42.69,0,6,.15,6.57-.47,7.81a6.4,6.4,0,0,0,.52,6.61L111,69.28a4.35,4.35,0,0,1-2.68,6.79l-5.86,1.18a1,1,0,0,0-.81,1c0,6.56-.06,6.3.17,6.65.59.89,1.22,1.83.49,3.18A2.53,2.53,0,0,1,100,89.42H92.45a1,1,0,0,0,0,2h5.61a2.57,2.57,0,0,1,1.81,4.39c-.4.41-.29.35-.29,6.52A11.49,11.49,0,0,1,88.1,113.81c-2.14,0-2.19-.17-15.7-4a1,1,0,0,0-1.27,1V127a1,1,0,0,0,2,0V112.07c11.4,3.26,12.36,3.74,15,3.74a13.5,13.5,0,0,0,13.48-13.48V96.9a4.54,4.54,0,0,0,0-5.77,4.58,4.58,0,0,0,2.18-6.82c-.28-.41-.2.44-.2-5.26l5.06-1A6.35,6.35,0,0,0,112.59,68.12Z"/><path class="cls-1" d="M91.42,37.58a9.15,9.15,0,0,0-6.27-8.66,7.09,7.09,0,0,0-8.66-8.38A17.26,17.26,0,0,0,42.7,24.43a11.16,11.16,0,0,0,1,22.28H82.29A9.15,9.15,0,0,0,91.42,37.58Zm-56.9-2a9.17,9.17,0,0,1,9.16-9.16,1,1,0,0,0,1-1,15.25,15.25,0,0,1,30.13-3.34,1,1,0,0,0,1.37.7,5.1,5.1,0,0,1,7.14,4.67c0,1.6-.71,1.94-.3,2.68a1,1,0,0,0,.68.49,7.13,7.13,0,0,1-1.41,14.12H43.68A9.17,9.17,0,0,1,34.52,35.55Z"/><path class="cls-1" d="M36.69,53.39l-2,4.07a1,1,0,0,0,.9,1.44c.81,0,.77-.31,2.93-4.61A1,1,0,0,0,36.69,53.39Z"/><path class="cls-1" d="M48.88,53.39l-2,4.07a1,1,0,0,0,.89,1.44c.82,0,.78-.31,2.93-4.61A1,1,0,0,0,48.88,53.39Z"/><path class="cls-1" d="M40.75,63.55l-2,4.07a1,1,0,0,0,.89,1.44c.82,0,.78-.31,2.93-4.61A1,1,0,0,0,40.75,63.55Z"/><path class="cls-1" d="M52.94,63.55l-2,4.07a1,1,0,0,0,.9,1.44c.81,0,.77-.31,2.92-4.61A1,1,0,0,0,52.94,63.55Z"/><path class="cls-1" d="M61.07,53.39l-2,4.07a1,1,0,0,0,.89,1.44c.82,0,.78-.31,2.93-4.61A1,1,0,0,0,61.07,53.39Z"/><path class="cls-1" d="M73.27,53.39l-2,4.07a1,1,0,0,0,1.79.89l2-4.06A1,1,0,0,0,73.27,53.39Z"/><path class="cls-1" d="M65.14,63.55l-2,4.07A1,1,0,0,0,64,69.06c.81,0,.77-.31,2.93-4.61A1,1,0,0,0,65.14,63.55Z"/><path class="cls-1" d="M77.33,63.55l-2,4.07a1,1,0,0,0,1.79.89l2-4.06A1,1,0,0,0,77.33,63.55Z"/><path class="cls-1" d="M85.46,53.39l-2,4.07a1,1,0,0,0,1.79.89l2-4.06A1,1,0,0,0,85.46,53.39Z"/></g></svg>