<svg xmlns="http://www.w3.org/2000/svg" viewBox="0 0 128 128"><defs><style>.cls-1{fill:#47566a;}</style></defs><title>Crying</title><g id="Crying"><path class="cls-1" d="M127.85,59.4c-22.58-35.81-84.79-35.82-107.37,0a1,1,0,0,0,0,1.07c22.57,35.81,84.78,35.82,107.37,0A1,1,0,0,0,127.85,59.4Zm-105.34.54C30.91,47,45.79,38.13,62.92,35.4a23.36,23.36,0,1,0,22.48,0c17.13,2.73,32,11.6,40.41,24.54C103.82,93.79,44.52,93.81,22.51,59.94ZM74.16,34.52A21.36,21.36,0,1,1,52.81,55.87,21.38,21.38,0,0,1,74.16,34.52Z"/><path class="cls-1" d="M21,48.77A53.93,53.93,0,0,1,36.1,32.3c28.45-20.51,72.18-13.41,89.7,16.47a1,1,0,0,0,1.72-1A55.83,55.83,0,0,0,113,31.5l6-6a1,1,0,0,0-1.42-1.41l-6.23,6.24a63.54,63.54,0,0,0-18-8.76l5.33-9.2a1,1,0,0,0-1.73-1L91.33,21a69.11,69.11,0,0,0-16.94-2.36V7.1a1,1,0,0,0-2,0V18.62A69.11,69.11,0,0,0,55.45,21l-5.58-9.63a1,1,0,0,0-1.73,1l5.33,9.2a63.65,63.65,0,0,0-18,8.75l-6.24-6.23a1,1,0,0,0-1.41,1.41l6,6A56,56,0,0,0,19.25,47.75,1,1,0,0,0,21,48.77Z"/><path class="cls-1" d="M16.55,71.42C15.88,72.1,0,88.16,0,104.65a17.26,17.26,0,0,0,34.52,0C34.52,88.16,18.64,72.1,18,71.42A1,1,0,0,0,16.55,71.42Zm.71,48.48A15.27,15.27,0,0,1,2,104.65C2,90.92,14.17,76.92,17.26,73.58c3.09,3.33,15.26,17.32,15.26,31.07A15.27,15.27,0,0,1,17.26,119.9Z"/><path class="cls-1" d="M74.16,65A9.13,9.13,0,1,0,65,55.87,9.13,9.13,0,0,0,74.16,65Zm0-16.26A7.13,7.13,0,1,1,67,55.87,7.14,7.14,0,0,1,74.16,48.74Z"/></g></svg>