<svg xmlns="http://www.w3.org/2000/svg" viewBox="0 0 128 128"><defs><style>.cls-1{fill:#47566a;}</style></defs><title>Intrusive thought</title><g id="Intrusive_thought" data-name="Intrusive thought"><path class="cls-1" d="M112.59,68.12,105.32,58A4.41,4.41,0,0,1,105,53.4c.9-1.81.68-2.93.68-8.71C105.65,21.62,87.79,0,59.12,0A45,45,0,0,0,14.23,44.69c0,9,.86,17.05,4.9,26.73A61.71,61.71,0,0,1,24,98.92c-.65,12.08-1.4,27.87-1.41,28a1,1,0,0,0,2,.1C25.86,98.77,28.16,87.9,21.1,71,17,61.18,16.2,53.54,16.23,44.7A43,43,0,0,1,59.12,2c27.25,0,44.53,20.43,44.53,42.69,0,6,.15,6.57-.47,7.81a6.4,6.4,0,0,0,.52,6.61L111,69.28a4.35,4.35,0,0,1-2.68,6.79l-5.86,1.18a1,1,0,0,0-.81,1c0,6.56-.06,6.3.17,6.65.59.89,1.22,1.83.49,3.18A2.53,2.53,0,0,1,100,89.42H92.45a1,1,0,0,0,0,2h5.61a2.57,2.57,0,0,1,1.81,4.39c-.4.41-.29.35-.29,6.52A11.49,11.49,0,0,1,88.1,113.81c-2.14,0-2.19-.17-15.7-4a1,1,0,0,0-1.27,1V127a1,1,0,0,0,2,0V112.07c11.4,3.26,12.36,3.74,15,3.74a13.5,13.5,0,0,0,13.48-13.48V96.9a4.54,4.54,0,0,0,0-5.77,4.58,4.58,0,0,0,2.18-6.82c-.28-.41-.2.44-.2-5.26l5.06-1A6.35,6.35,0,0,0,112.59,68.12Z"/><path class="cls-1" d="M86.37,47.89c9-.16,12.47-3.6,5.1-10.16,2.85-10.73-1-20.17-12.25-22.34a13.81,13.81,0,0,0-4.5-5.06C68.26,6,53.41,4.12,39,16.5c-11,9.47-13.63,17.89-11.28,22,2.49,4.39,8.38,2.85,12.9,1a18.79,18.79,0,0,1-2.43,5.11c-6.95,1.12-15.4,4.76-13.73,11.42,1.14,4.58,4.35,6.55,9.2,4.67,5.77,4.7,25.13,4.76,36.17-6.23C76.15,55.45,81.19,54.38,86.37,47.89Zm-1-2a42.22,42.22,0,0,1-8.62-1,45,45,0,0,0,4.17-12,55.34,55.34,0,0,1,8.27,5.54A26.06,26.06,0,0,1,85.38,45.89Zm-10.6-1.51c-6-1.72-8.15-4.1-14.79-10.41,5.22-3.88,11.09-4.32,19.05-1.83A42.64,42.64,0,0,1,74.78,44.38Zm18.7-.7c0,1.51-4.1,2-5.62,2.14a27.59,27.59,0,0,0,3-6C92.39,41.3,93.48,42.69,93.48,43.68Zm-3.71-7.37a54.45,54.45,0,0,0-8.5-5.47,27.8,27.8,0,0,0-1-13.17C89.08,20.09,91.71,27.71,89.77,36.31ZM77.88,17.19c1.78,3.9,2,8.69,1.46,13-8.61-2.63-15.09-2-20.82,2.43-1.3-1.21-2.59-2.37-3.87-3.41,1.47-1.8,2.66-3.47,4-5.18C62.77,18.87,70.59,16.13,77.88,17.19Zm-35,21.4a31.47,31.47,0,0,0,10.52-7.91c1.18,1,2.39,2,3.62,3.19-3.81,3.47-5.7,7-8.39,10.62a34.9,34.9,0,0,0-7.91-.12A17.33,17.33,0,0,0,42.84,38.59Zm1.54-10.46c2-2,5.07-.34,7.39,1.33A29.87,29.87,0,0,1,43,36.27C42.93,32.62,41.56,31,44.38,28.13ZM40.26,18c13-11.1,30.36-11.74,36.41-3-7.53-.59-15.32,2.4-19.55,7.69-1.38,1.72-2.63,3.47-4,5.21-3.81-2.77-7.35-4-10.1-1.23-3.89,3.89-1.74,6.57-2,10.53C24,44.7,25.81,30.41,40.26,18ZM26.36,55.63c-1.19-4.77,5.35-7.5,10.12-8.59-2.15,2.81-7.09,7.58-4.27,12.14C28.93,60.18,27.15,58.8,26.36,55.63Zm13-9.11a34,34,0,0,1,7.86-.19C42.62,52.16,37.9,56.49,34.1,58.41,31.48,54.83,36.54,50.61,39.33,46.52ZM35.67,59.81c4.2-2.32,9.07-6.92,13.79-13.14,7.81,1.5,10.82,5.68,17.92,7.41C58.15,62.45,41.54,63.49,35.67,59.81Zm33.42-7.4c-7.36-1.36-10.26-5.66-18.32-7.51,2.11-2.93,4.16-6.5,7.67-9.65,7.26,6.91,9.46,9.16,15.34,10.92A35.74,35.74,0,0,1,69.09,52.41Zm14.69-4.56c-4.21,4.58-7.79,5.27-12.29,4.88C79.16,43.89,71.27,47.22,83.78,47.85Z"/></g></svg>